<?xml version="1.0" standalone="no"?>
<svg
    xmlns="http://www.w3.org/2000/svg"
    version="1.1"
    viewBox="3232 1936
            214 388"
><path stroke="black" stroke-width="5" fill="#eaac3b" d="M 3250 2006 L 3250 1951 L 3287 1951 L 3287 1962 L 3315 1962 L 3315 1951 L 3364 1951 L 3364 1959 L 3389 1959 L 3389 1946 L 3427 1946 L 3427 2009 L 3412 2009 L 3412 2029 L 3422 2034 L 3425 2041 L 3424 2048 L 3418 2052 L 3411 2054 L 3411 2076 L 3435 2076 L 3435 2102 L 3431 2102 L 3431 2163 L 3436 2163 L 3436 2189 L 3415 2189 L 3415 2207 L 3421 2210 L 3426 2218 L 3425 2227 L 3420 2235 L 3407 2235 L 3407 2264 L 3422 2264 L 3422 2310 L 3399 2311 L 3399 2299 L 3283 2301 L 3283 2314 L 3252 2314 L 3252 2259 L 3267 2259 L 3266 2235 L 3258 2232 L 3254 2225 L 3258 2216 L 3266 2213 L 3266 2190 L 3242 2191 L 3242 2166 L 3251 2166 L 3251 2104 L 3244 2104 L 3244 2078 L 3266 2077 L 3266 2052 L 3258 2049 L 3255 2041 L 3259 2035 L 3267 2030 L 3267 2006 Z "/></svg>